<svg width="329" height="208" viewBox="0 0 329 208" fill="none" xmlns="http://www.w3.org/2000/svg">
<rect width="329" height="208.008" rx="20" fill="url(#paint0_linear_80_80)"/>
<path d="M84.7637 40L50.255 69.547L50 155.455L84.7637 168.008V40Z" fill="#D9D9D9"/>
<path d="M92.2363 40L126.745 69.547L127 155.455L92.2363 168.008V40Z" fill="#D9D9D9"/>
<path d="M172.24 118.524H181.2C182.96 118.524 184.213 118.178 184.96 117.484C185.76 116.738 186.16 115.538 186.16 113.884V109.244C186.16 107.591 185.76 106.418 184.96 105.724C184.16 105.031 182.853 104.684 181.04 104.684H172.24C171.653 104.684 171.36 104.978 171.36 105.564V117.644C171.36 118.231 171.653 118.524 172.24 118.524ZM172.24 96.4443H180.4C182.107 96.4443 183.36 96.0976 184.16 95.4043C184.96 94.6576 185.36 93.4576 185.36 91.8043V88.6843C185.36 87.0309 184.96 85.8576 184.16 85.1643C183.413 84.4176 182.187 84.0443 180.48 84.0443H172.24C171.653 84.0443 171.36 84.3376 171.36 84.9243V95.5643C171.36 96.1509 171.653 96.4443 172.24 96.4443ZM161.2 125.324V77.2443C161.2 76.1243 161.76 75.5643 162.88 75.5643H182.08C186.293 75.5643 189.547 76.6843 191.84 78.9243C194.133 81.1643 195.28 84.3643 195.28 88.5243V91.8043C195.28 96.3376 193.173 99.2709 188.96 100.604C191.093 100.924 192.8 101.804 194.08 103.244C195.36 104.631 196 106.631 196 109.244V114.044C196 118.204 194.853 121.404 192.56 123.644C190.267 125.884 187.04 127.004 182.88 127.004H162.88C161.76 127.004 161.2 126.444 161.2 125.324ZM221.495 127.004H214.775C213.602 127.004 213.015 126.444 213.015 125.324V85.2443C213.015 84.6576 212.722 84.3643 212.135 84.3643H203.015C201.895 84.3643 201.335 83.8043 201.335 82.6843V77.2443C201.335 76.1243 201.895 75.5643 203.015 75.5643H233.255C234.375 75.5643 234.935 76.1243 234.935 77.2443V82.6843C234.935 83.8043 234.375 84.3643 233.255 84.3643H224.135C223.495 84.3643 223.175 84.6576 223.175 85.2443V125.324C223.175 126.444 222.615 127.004 221.495 127.004ZM239.764 113.884V112.284C239.764 111.164 240.324 110.604 241.444 110.604H248.244C249.364 110.604 249.924 111.164 249.924 112.284V112.924C249.924 114.951 250.324 116.338 251.124 117.084C251.924 117.831 253.39 118.204 255.524 118.204H259.284C261.364 118.204 262.804 117.804 263.604 117.004C264.457 116.204 264.884 114.711 264.884 112.524V111.564C264.884 110.018 264.244 108.844 262.964 108.044C261.737 107.191 260.19 106.684 258.324 106.524C256.457 106.364 254.43 106.071 252.244 105.644C250.11 105.164 248.11 104.578 246.244 103.884C244.377 103.138 242.804 101.724 241.524 99.6443C240.297 97.5109 239.684 94.7909 239.684 91.4843V88.6843C239.684 84.5243 240.857 81.2976 243.204 79.0043C245.55 76.7109 248.804 75.5643 252.964 75.5643H260.964C265.177 75.5643 268.457 76.7109 270.804 79.0043C273.15 81.2976 274.324 84.5243 274.324 88.6843V90.2043C274.324 91.3243 273.764 91.8843 272.644 91.8843H265.844C264.724 91.8843 264.164 91.3243 264.164 90.2043V89.7243C264.164 87.6443 263.764 86.2309 262.964 85.4843C262.164 84.7376 260.697 84.3643 258.564 84.3643H255.444C253.257 84.3643 251.764 84.7909 250.964 85.6443C250.217 86.4443 249.844 88.0443 249.844 90.4443V91.9643C249.844 94.4709 252.03 95.9109 256.404 96.2843C260.937 96.6576 264.964 97.5643 268.484 99.0043C270.35 99.8043 271.897 101.244 273.124 103.324C274.404 105.351 275.044 107.964 275.044 111.164V113.884C275.044 118.044 273.87 121.271 271.524 123.564C269.177 125.858 265.924 127.004 261.764 127.004H253.044C248.884 127.004 245.63 125.858 243.284 123.564C240.937 121.271 239.764 118.044 239.764 113.884Z" fill="white"/>
<defs>
<linearGradient id="paint0_linear_80_80" x1="87" y1="49" x2="1038.35" y2="777.099" gradientUnits="userSpaceOnUse">
<stop stop-color="#0B122A"/>
<stop offset="1" stop-color="white" stop-opacity="0.19"/>
</linearGradient>
</defs>
</svg>
