<svg width="287" height="58" viewBox="0 0 287 58" fill="none" xmlns="http://www.w3.org/2000/svg">
<path d="M16 1.77502L1.11002 14.4702L1 51.3814L16 56.775V1.77502Z" fill="#0B122A" stroke="#0B122A"/>
<circle cx="3" cy="29" r="1" fill="#D9D9D9"/>
<path d="M24 1.77502L38.89 14.4702L39 51.3814L24 56.775V1.77502Z" fill="#0B122A" stroke="#0B122A"/>
<circle cx="1" cy="1" r="1" transform="matrix(-1 0 0 1 38 28)" fill="#D9D9D9"/>
<path d="M57.09 35.095H60.45C61.11 35.095 61.58 34.965 61.86 34.705C62.16 34.425 62.31 33.975 62.31 33.355V31.615C62.31 30.995 62.16 30.555 61.86 30.295C61.56 30.035 61.07 29.905 60.39 29.905H57.09C56.87 29.905 56.76 30.015 56.76 30.235V34.765C56.76 34.985 56.87 35.095 57.09 35.095ZM57.09 26.815H60.15C60.79 26.815 61.26 26.685 61.56 26.425C61.86 26.145 62.01 25.695 62.01 25.075V23.905C62.01 23.285 61.86 22.845 61.56 22.585C61.28 22.305 60.82 22.165 60.18 22.165H57.09C56.87 22.165 56.76 22.275 56.76 22.495V26.485C56.76 26.705 56.87 26.815 57.09 26.815ZM52.95 37.645V19.615C52.95 19.195 53.16 18.985 53.58 18.985H60.78C62.36 18.985 63.58 19.405 64.44 20.245C65.3 21.085 65.73 22.285 65.73 23.845V25.075C65.73 26.775 64.94 27.875 63.36 28.375C64.16 28.495 64.8 28.825 65.28 29.365C65.76 29.885 66 30.635 66 31.615V33.415C66 34.975 65.57 36.175 64.71 37.015C63.85 37.855 62.64 38.275 61.08 38.275H53.58C53.16 38.275 52.95 38.065 52.95 37.645ZM75.5606 38.275H73.0406C72.6006 38.275 72.3806 38.065 72.3806 37.645V22.615C72.3806 22.395 72.2706 22.285 72.0506 22.285H68.6306C68.2106 22.285 68.0006 22.075 68.0006 21.655V19.615C68.0006 19.195 68.2106 18.985 68.6306 18.985H79.9706C80.3906 18.985 80.6006 19.195 80.6006 19.615V21.655C80.6006 22.075 80.3906 22.285 79.9706 22.285H76.5506C76.3106 22.285 76.1906 22.395 76.1906 22.615V37.645C76.1906 38.065 75.9806 38.275 75.5606 38.275ZM82.4114 33.355V32.755C82.4114 32.335 82.6214 32.125 83.0414 32.125H85.5914C86.0114 32.125 86.2214 32.335 86.2214 32.755V32.995C86.2214 33.755 86.3714 34.275 86.6714 34.555C86.9714 34.835 87.5214 34.975 88.3214 34.975H89.7314C90.5114 34.975 91.0514 34.825 91.3514 34.525C91.6714 34.225 91.8314 33.665 91.8314 32.845V32.485C91.8314 31.905 91.5914 31.465 91.1114 31.165C90.6514 30.845 90.0714 30.655 89.3714 30.595C88.6714 30.535 87.9114 30.425 87.0914 30.265C86.2914 30.085 85.5414 29.865 84.8414 29.605C84.1414 29.325 83.5514 28.795 83.0714 28.015C82.6114 27.215 82.3814 26.195 82.3814 24.955V23.905C82.3814 22.345 82.8214 21.135 83.7014 20.275C84.5814 19.415 85.8014 18.985 87.3614 18.985H90.3614C91.9414 18.985 93.1714 19.415 94.0514 20.275C94.9314 21.135 95.3714 22.345 95.3714 23.905V24.475C95.3714 24.895 95.1614 25.105 94.7414 25.105H92.1914C91.7714 25.105 91.5614 24.895 91.5614 24.475V24.295C91.5614 23.515 91.4114 22.985 91.1114 22.705C90.8114 22.425 90.2614 22.285 89.4614 22.285H88.2914C87.4714 22.285 86.9114 22.445 86.6114 22.765C86.3314 23.065 86.1914 23.665 86.1914 24.565V25.135C86.1914 26.075 87.0114 26.615 88.6514 26.755C90.3514 26.895 91.8614 27.235 93.1814 27.775C93.8814 28.075 94.4614 28.615 94.9214 29.395C95.4014 30.155 95.6414 31.135 95.6414 32.335V33.355C95.6414 34.915 95.2014 36.125 94.3214 36.985C93.4414 37.845 92.2214 38.275 90.6614 38.275H87.3914C85.8314 38.275 84.6114 37.845 83.7314 36.985C82.8514 36.125 82.4114 34.915 82.4114 33.355Z" fill="#0B122A"/>
<path d="M113.498 21.591V34.813C113.498 35.121 113.337 35.275 113.014 35.275H112.068C111.76 35.275 111.606 35.121 111.606 34.813V21.591C111.606 21.283 111.76 21.129 112.068 21.129H113.014C113.337 21.129 113.498 21.283 113.498 21.591Z" fill="#0B122A"/>
<path d="M132.466 32.943H134.93C135.414 32.943 135.759 32.8477 135.964 32.657C136.184 32.4517 136.294 32.1217 136.294 31.667V30.391C136.294 29.9364 136.184 29.6137 135.964 29.423C135.744 29.2324 135.385 29.137 134.886 29.137H132.466C132.305 29.137 132.224 29.2177 132.224 29.379V32.701C132.224 32.8624 132.305 32.943 132.466 32.943ZM132.466 26.871H134.71C135.179 26.871 135.524 26.7757 135.744 26.585C135.964 26.3797 136.074 26.0497 136.074 25.595V24.737C136.074 24.2824 135.964 23.9597 135.744 23.769C135.539 23.5637 135.201 23.461 134.732 23.461H132.466C132.305 23.461 132.224 23.5417 132.224 23.703V26.629C132.224 26.7904 132.305 26.871 132.466 26.871ZM129.43 34.813V21.591C129.43 21.283 129.584 21.129 129.892 21.129H135.172C136.331 21.129 137.225 21.437 137.856 22.053C138.487 22.669 138.802 23.549 138.802 24.693V25.595C138.802 26.8417 138.223 27.6484 137.064 28.015C137.651 28.103 138.12 28.345 138.472 28.741C138.824 29.1224 139 29.6724 139 30.391V31.711C139 32.855 138.685 33.735 138.054 34.351C137.423 34.967 136.536 35.275 135.392 35.275H129.892C129.584 35.275 129.43 35.121 129.43 34.813ZM145.461 35.275H144.735C143.606 35.275 142.748 34.967 142.161 34.351C141.589 33.735 141.303 32.8477 141.303 31.689V24.517C141.303 24.209 141.457 24.055 141.765 24.055H143.635C143.943 24.055 144.097 24.209 144.097 24.517V31.557C144.097 32.0264 144.192 32.3637 144.383 32.569C144.588 32.7597 144.918 32.855 145.373 32.855H146.187C147.199 32.855 147.705 32.2977 147.705 31.183V24.517C147.705 24.209 147.859 24.055 148.167 24.055H150.015C150.338 24.055 150.499 24.209 150.499 24.517V34.813C150.499 35.121 150.338 35.275 150.015 35.275H148.167C147.859 35.275 147.705 35.121 147.705 34.813V34.087H147.617C147.456 34.483 147.17 34.7837 146.759 34.989C146.348 35.1797 145.916 35.275 145.461 35.275ZM159.353 24.055H161.487C161.663 24.055 161.78 24.1064 161.839 24.209C161.897 24.3117 161.875 24.4437 161.773 24.605L158.847 29.423V29.511L161.905 34.725C161.993 34.8717 162 35.0037 161.927 35.121C161.853 35.2237 161.721 35.275 161.531 35.275H159.639C159.389 35.275 159.206 35.2457 159.089 35.187C158.986 35.1284 158.876 35.0037 158.759 34.813L155.965 29.907C155.833 29.6724 155.833 29.4304 155.965 29.181L158.605 24.495C158.766 24.2017 159.015 24.055 159.353 24.055ZM155.261 35.275H153.391C153.083 35.275 152.929 35.121 152.929 34.813V20.271C152.929 19.963 153.083 19.809 153.391 19.809H155.261C155.569 19.809 155.723 19.963 155.723 20.271V34.813C155.723 35.121 155.569 35.275 155.261 35.275ZM167.244 35.275H166.716C165.557 35.275 164.662 34.967 164.032 34.351C163.401 33.735 163.086 32.8477 163.086 31.689V27.641C163.086 26.4824 163.401 25.595 164.032 24.979C164.662 24.363 165.557 24.055 166.716 24.055H171.798C172.12 24.055 172.282 24.209 172.282 24.517V34.813C172.282 35.121 172.12 35.275 171.798 35.275H169.95C169.642 35.275 169.488 35.121 169.488 34.813V34.087H169.4C169.238 34.483 168.952 34.7837 168.542 34.989C168.131 35.1797 167.698 35.275 167.244 35.275ZM169.488 31.183V26.717C169.488 26.5557 169.4 26.475 169.224 26.475H167.156C166.686 26.475 166.356 26.5777 166.166 26.783C165.975 26.9737 165.88 27.3037 165.88 27.773V31.557C165.88 32.0264 165.975 32.3637 166.166 32.569C166.356 32.7597 166.686 32.855 167.156 32.855H167.97C168.982 32.855 169.488 32.2977 169.488 31.183ZM184.124 35.275H182.276C181.954 35.275 181.792 35.121 181.792 34.813V23.791C181.792 23.6297 181.712 23.549 181.55 23.549H179.042C178.734 23.549 178.58 23.395 178.58 23.087V21.591C178.58 21.283 178.734 21.129 179.042 21.129H187.358C187.666 21.129 187.82 21.283 187.82 21.591V23.087C187.82 23.395 187.666 23.549 187.358 23.549H184.85C184.674 23.549 184.586 23.6297 184.586 23.791V34.813C184.586 35.121 184.432 35.275 184.124 35.275ZM193.328 35.275H192.602C191.473 35.275 190.615 34.967 190.028 34.351C189.456 33.735 189.17 32.8477 189.17 31.689V24.517C189.17 24.209 189.324 24.055 189.632 24.055H191.502C191.81 24.055 191.964 24.209 191.964 24.517V31.557C191.964 32.0264 192.06 32.3637 192.25 32.569C192.456 32.7597 192.786 32.855 193.24 32.855H194.054C195.066 32.855 195.572 32.2977 195.572 31.183V24.517C195.572 24.209 195.726 24.055 196.034 24.055H197.882C198.205 24.055 198.366 24.209 198.366 24.517V34.813C198.366 35.121 198.205 35.275 197.882 35.275H196.034C195.726 35.275 195.572 35.121 195.572 34.813V34.087H195.484C195.323 34.483 195.037 34.7837 194.626 34.989C194.216 35.1797 193.783 35.275 193.328 35.275ZM201.038 26.475H200.158C199.982 26.475 199.857 26.4457 199.784 26.387C199.725 26.3284 199.696 26.211 199.696 26.035V24.517C199.696 24.209 199.85 24.055 200.158 24.055H201.038C201.199 24.055 201.28 23.9744 201.28 23.813V21.723C201.28 21.415 201.441 21.261 201.764 21.261H203.612C203.92 21.261 204.074 21.415 204.074 21.723V23.813C204.074 23.9744 204.162 24.055 204.338 24.055H206.054C206.362 24.055 206.516 24.209 206.516 24.517V26.035C206.516 26.1964 206.479 26.3137 206.406 26.387C206.347 26.4457 206.23 26.475 206.054 26.475H204.338C204.162 26.475 204.074 26.5557 204.074 26.717V31.579C204.074 32.0337 204.177 32.3637 204.382 32.569C204.587 32.7597 204.925 32.855 205.394 32.855H206.274C206.582 32.855 206.736 33.009 206.736 33.317V34.835C206.736 34.9964 206.699 35.1137 206.626 35.187C206.567 35.2457 206.45 35.275 206.274 35.275H204.932C203.773 35.275 202.871 34.967 202.226 34.351C201.595 33.735 201.28 32.855 201.28 31.711V26.717C201.28 26.5557 201.199 26.475 201.038 26.475ZM212.6 35.275H211.874C210.744 35.275 209.886 34.967 209.3 34.351C208.728 33.735 208.442 32.8477 208.442 31.689V24.517C208.442 24.209 208.596 24.055 208.904 24.055H210.774C211.082 24.055 211.236 24.209 211.236 24.517V31.557C211.236 32.0264 211.331 32.3637 211.522 32.569C211.727 32.7597 212.057 32.855 212.512 32.855H213.326C214.338 32.855 214.844 32.2977 214.844 31.183V24.517C214.844 24.209 214.998 24.055 215.306 24.055H217.154C217.476 24.055 217.638 24.209 217.638 24.517V34.813C217.638 35.121 217.476 35.275 217.154 35.275H215.306C214.998 35.275 214.844 35.121 214.844 34.813V34.087H214.756C214.594 34.483 214.308 34.7837 213.898 34.989C213.487 35.1797 213.054 35.275 212.6 35.275ZM222.399 38.267H220.529C220.221 38.267 220.067 38.1204 220.067 37.827V24.517C220.067 24.209 220.221 24.055 220.529 24.055H222.399C222.707 24.055 222.861 24.209 222.861 24.517V25.243H222.949C223.111 24.847 223.397 24.5537 223.807 24.363C224.218 24.1577 224.651 24.055 225.105 24.055H226.007C227.137 24.055 227.987 24.363 228.559 24.979C229.146 25.595 229.439 26.4824 229.439 27.641V31.689C229.439 32.8477 229.146 33.735 228.559 34.351C227.987 34.967 227.137 35.275 226.007 35.275H225.105C224.651 35.275 224.218 35.1797 223.807 34.989C223.397 34.7837 223.111 34.483 222.949 34.087H222.861V37.827C222.861 38.1204 222.707 38.267 222.399 38.267ZM224.379 32.855H225.347C225.817 32.855 226.147 32.7597 226.337 32.569C226.543 32.3637 226.645 32.0264 226.645 31.557V27.773C226.645 27.3037 226.543 26.9737 226.337 26.783C226.147 26.5777 225.817 26.475 225.347 26.475H224.379C223.367 26.475 222.861 27.0324 222.861 28.147V31.183C222.861 32.2977 223.367 32.855 224.379 32.855ZM236.349 31.667V31.227C236.349 30.919 236.503 30.765 236.811 30.765H238.681C238.989 30.765 239.143 30.919 239.143 31.227V31.403C239.143 31.9604 239.253 32.3417 239.473 32.547C239.693 32.7524 240.097 32.855 240.683 32.855H241.717C242.289 32.855 242.685 32.745 242.905 32.525C243.14 32.305 243.257 31.8944 243.257 31.293V31.029C243.257 30.6037 243.081 30.281 242.729 30.061C242.392 29.8264 241.967 29.687 241.453 29.643C240.94 29.599 240.383 29.5184 239.781 29.401C239.195 29.269 238.645 29.1077 238.131 28.917C237.618 28.7117 237.185 28.323 236.833 27.751C236.496 27.1644 236.327 26.4164 236.327 25.507V24.737C236.327 23.593 236.65 22.7057 237.295 22.075C237.941 21.4444 238.835 21.129 239.979 21.129H242.179C243.338 21.129 244.24 21.4444 244.885 22.075C245.531 22.7057 245.853 23.593 245.853 24.737V25.155C245.853 25.463 245.699 25.617 245.391 25.617H243.521C243.213 25.617 243.059 25.463 243.059 25.155V25.023C243.059 24.451 242.949 24.0624 242.729 23.857C242.509 23.6517 242.106 23.549 241.519 23.549H240.661C240.06 23.549 239.649 23.6664 239.429 23.901C239.224 24.121 239.121 24.561 239.121 25.221V25.639C239.121 26.3284 239.723 26.7244 240.925 26.827C242.172 26.9297 243.279 27.179 244.247 27.575C244.761 27.795 245.186 28.191 245.523 28.763C245.875 29.3204 246.051 30.039 246.051 30.919V31.667C246.051 32.811 245.729 33.6984 245.083 34.329C244.438 34.9597 243.543 35.275 242.399 35.275H240.001C238.857 35.275 237.963 34.9597 237.317 34.329C236.672 33.6984 236.349 32.811 236.349 31.667ZM256.613 35.275H251.751C250.592 35.275 249.698 34.967 249.067 34.351C248.436 33.735 248.121 32.8477 248.121 31.689V27.641C248.121 26.4824 248.436 25.595 249.067 24.979C249.698 24.363 250.592 24.055 251.751 24.055H253.489C254.648 24.055 255.542 24.363 256.173 24.979C256.804 25.595 257.119 26.4824 257.119 27.641V30.435C257.119 30.743 256.965 30.897 256.657 30.897H251.135C250.959 30.897 250.871 30.9777 250.871 31.139V31.623C250.871 32.0777 250.966 32.4077 251.157 32.613C251.362 32.8037 251.7 32.899 252.169 32.899H256.613C256.921 32.899 257.075 33.0604 257.075 33.383V34.835C257.075 34.9964 257.038 35.1137 256.965 35.187C256.906 35.2457 256.789 35.275 256.613 35.275ZM251.135 29.027H254.127C254.288 29.027 254.369 28.9464 254.369 28.785V27.729C254.369 27.2597 254.274 26.9297 254.083 26.739C253.892 26.5484 253.562 26.453 253.093 26.453H252.169C251.7 26.453 251.37 26.5484 251.179 26.739C250.988 26.9297 250.893 27.2597 250.893 27.729V28.785C250.893 28.9464 250.974 29.027 251.135 29.027ZM265.636 24.055H267.77C267.946 24.055 268.063 24.1064 268.122 24.209C268.181 24.3117 268.159 24.4437 268.056 24.605L265.13 29.423V29.511L268.188 34.725C268.276 34.8717 268.283 35.0037 268.21 35.121C268.137 35.2237 268.005 35.275 267.814 35.275H265.922C265.673 35.275 265.489 35.2457 265.372 35.187C265.269 35.1284 265.159 35.0037 265.042 34.813L262.248 29.907C262.116 29.6724 262.116 29.4304 262.248 29.181L264.888 24.495C265.049 24.2017 265.299 24.055 265.636 24.055ZM261.544 35.275H259.674C259.366 35.275 259.212 35.121 259.212 34.813V20.271C259.212 19.963 259.366 19.809 259.674 19.809H261.544C261.852 19.809 262.006 19.963 262.006 20.271V34.813C262.006 35.121 261.852 35.275 261.544 35.275ZM271.921 35.275H270.051C269.743 35.275 269.589 35.121 269.589 34.813V24.517C269.589 24.209 269.743 24.055 270.051 24.055H271.921C272.229 24.055 272.383 24.209 272.383 24.517V25.265H272.471C272.632 24.869 272.918 24.5684 273.329 24.363C273.74 24.1577 274.172 24.055 274.627 24.055H275.419C275.712 24.055 275.859 24.209 275.859 24.517V26.035C275.859 26.211 275.822 26.3357 275.749 26.409C275.69 26.4677 275.58 26.4897 275.419 26.475H273.901C272.889 26.475 272.383 27.047 272.383 28.191V34.813C272.383 35.121 272.229 35.275 271.921 35.275ZM285.531 35.275H280.669C279.51 35.275 278.615 34.967 277.985 34.351C277.354 33.735 277.039 32.8477 277.039 31.689V27.641C277.039 26.4824 277.354 25.595 277.985 24.979C278.615 24.363 279.51 24.055 280.669 24.055H282.407C283.565 24.055 284.46 24.363 285.091 24.979C285.721 25.595 286.037 26.4824 286.037 27.641V30.435C286.037 30.743 285.883 30.897 285.575 30.897H280.053C279.877 30.897 279.789 30.9777 279.789 31.139V31.623C279.789 32.0777 279.884 32.4077 280.075 32.613C280.28 32.8037 280.617 32.899 281.087 32.899H285.531C285.839 32.899 285.993 33.0604 285.993 33.383V34.835C285.993 34.9964 285.956 35.1137 285.883 35.187C285.824 35.2457 285.707 35.275 285.531 35.275ZM280.053 29.027H283.045C283.206 29.027 283.287 28.9464 283.287 28.785V27.729C283.287 27.2597 283.191 26.9297 283.001 26.739C282.81 26.5484 282.48 26.453 282.011 26.453H281.087C280.617 26.453 280.287 26.5484 280.097 26.739C279.906 26.9297 279.811 27.2597 279.811 27.729V28.785C279.811 28.9464 279.891 29.027 280.053 29.027Z" fill="#0B122A"/>
</svg>
