<svg width="287" height="58" viewBox="0 0 287 58" fill="none" xmlns="http://www.w3.org/2000/svg">
<path d="M16 2L1.11002 14.6951L1 51.6064L16 57V2Z" fill="white" stroke="white"/>
<circle cx="3" cy="29.225" r="1" fill="white"/>
<path d="M24 2L38.89 14.6951L39 51.6064L24 57V2Z" fill="white" stroke="white"/>
<circle cx="1" cy="1" r="1" transform="matrix(-1 0 0 1 38 28.225)" fill="white"/>
<path d="M57.09 35.32H60.45C61.11 35.32 61.58 35.19 61.86 34.93C62.16 34.65 62.31 34.2 62.31 33.58V31.84C62.31 31.22 62.16 30.78 61.86 30.52C61.56 30.26 61.07 30.13 60.39 30.13H57.09C56.87 30.13 56.76 30.24 56.76 30.46V34.99C56.76 35.21 56.87 35.32 57.09 35.32ZM57.09 27.04H60.15C60.79 27.04 61.26 26.91 61.56 26.65C61.86 26.37 62.01 25.92 62.01 25.3V24.13C62.01 23.51 61.86 23.07 61.56 22.81C61.28 22.53 60.82 22.39 60.18 22.39H57.09C56.87 22.39 56.76 22.5 56.76 22.72V26.71C56.76 26.93 56.87 27.04 57.09 27.04ZM52.95 37.87V19.84C52.95 19.42 53.16 19.21 53.58 19.21H60.78C62.36 19.21 63.58 19.63 64.44 20.47C65.3 21.31 65.73 22.51 65.73 24.07V25.3C65.73 27 64.94 28.1 63.36 28.6C64.16 28.72 64.8 29.05 65.28 29.59C65.76 30.11 66 30.86 66 31.84V33.64C66 35.2 65.57 36.4 64.71 37.24C63.85 38.08 62.64 38.5 61.08 38.5H53.58C53.16 38.5 52.95 38.29 52.95 37.87ZM75.5606 38.5H73.0406C72.6006 38.5 72.3806 38.29 72.3806 37.87V22.84C72.3806 22.62 72.2706 22.51 72.0506 22.51H68.6306C68.2106 22.51 68.0006 22.3 68.0006 21.88V19.84C68.0006 19.42 68.2106 19.21 68.6306 19.21H79.9706C80.3906 19.21 80.6006 19.42 80.6006 19.84V21.88C80.6006 22.3 80.3906 22.51 79.9706 22.51H76.5506C76.3106 22.51 76.1906 22.62 76.1906 22.84V37.87C76.1906 38.29 75.9806 38.5 75.5606 38.5ZM82.4114 33.58V32.98C82.4114 32.56 82.6214 32.35 83.0414 32.35H85.5914C86.0114 32.35 86.2214 32.56 86.2214 32.98V33.22C86.2214 33.98 86.3714 34.5 86.6714 34.78C86.9714 35.06 87.5214 35.2 88.3214 35.2H89.7314C90.5114 35.2 91.0514 35.05 91.3514 34.75C91.6714 34.45 91.8314 33.89 91.8314 33.07V32.71C91.8314 32.13 91.5914 31.69 91.1114 31.39C90.6514 31.07 90.0714 30.88 89.3714 30.82C88.6714 30.76 87.9114 30.65 87.0914 30.49C86.2914 30.31 85.5414 30.09 84.8414 29.83C84.1414 29.55 83.5514 29.02 83.0714 28.24C82.6114 27.44 82.3814 26.42 82.3814 25.18V24.13C82.3814 22.57 82.8214 21.36 83.7014 20.5C84.5814 19.64 85.8014 19.21 87.3614 19.21H90.3614C91.9414 19.21 93.1714 19.64 94.0514 20.5C94.9314 21.36 95.3714 22.57 95.3714 24.13V24.7C95.3714 25.12 95.1614 25.33 94.7414 25.33H92.1914C91.7714 25.33 91.5614 25.12 91.5614 24.7V24.52C91.5614 23.74 91.4114 23.21 91.1114 22.93C90.8114 22.65 90.2614 22.51 89.4614 22.51H88.2914C87.4714 22.51 86.9114 22.67 86.6114 22.99C86.3314 23.29 86.1914 23.89 86.1914 24.79V25.36C86.1914 26.3 87.0114 26.84 88.6514 26.98C90.3514 27.12 91.8614 27.46 93.1814 28C93.8814 28.3 94.4614 28.84 94.9214 29.62C95.4014 30.38 95.6414 31.36 95.6414 32.56V33.58C95.6414 35.14 95.2014 36.35 94.3214 37.21C93.4414 38.07 92.2214 38.5 90.6614 38.5H87.3914C85.8314 38.5 84.6114 38.07 83.7314 37.21C82.8514 36.35 82.4114 35.14 82.4114 33.58Z" fill="white"/>
<path d="M113.498 21.816V35.038C113.498 35.346 113.337 35.5 113.014 35.5H112.068C111.76 35.5 111.606 35.346 111.606 35.038V21.816C111.606 21.508 111.76 21.354 112.068 21.354H113.014C113.337 21.354 113.498 21.508 113.498 21.816Z" fill="white"/>
<path d="M132.466 33.168H134.93C135.414 33.168 135.759 33.0727 135.964 32.882C136.184 32.6767 136.294 32.3467 136.294 31.892V30.616C136.294 30.1613 136.184 29.8387 135.964 29.648C135.744 29.4573 135.385 29.362 134.886 29.362H132.466C132.305 29.362 132.224 29.4427 132.224 29.604V32.926C132.224 33.0873 132.305 33.168 132.466 33.168ZM132.466 27.096H134.71C135.179 27.096 135.524 27.0007 135.744 26.81C135.964 26.6047 136.074 26.2747 136.074 25.82V24.962C136.074 24.5073 135.964 24.1847 135.744 23.994C135.539 23.7887 135.201 23.686 134.732 23.686H132.466C132.305 23.686 132.224 23.7667 132.224 23.928V26.854C132.224 27.0153 132.305 27.096 132.466 27.096ZM129.43 35.038V21.816C129.43 21.508 129.584 21.354 129.892 21.354H135.172C136.331 21.354 137.225 21.662 137.856 22.278C138.487 22.894 138.802 23.774 138.802 24.918V25.82C138.802 27.0667 138.223 27.8733 137.064 28.24C137.651 28.328 138.12 28.57 138.472 28.966C138.824 29.3473 139 29.8973 139 30.616V31.936C139 33.08 138.685 33.96 138.054 34.576C137.423 35.192 136.536 35.5 135.392 35.5H129.892C129.584 35.5 129.43 35.346 129.43 35.038ZM145.461 35.5H144.735C143.606 35.5 142.748 35.192 142.161 34.576C141.589 33.96 141.303 33.0727 141.303 31.914V24.742C141.303 24.434 141.457 24.28 141.765 24.28H143.635C143.943 24.28 144.097 24.434 144.097 24.742V31.782C144.097 32.2513 144.192 32.5887 144.383 32.794C144.588 32.9847 144.918 33.08 145.373 33.08H146.187C147.199 33.08 147.705 32.5227 147.705 31.408V24.742C147.705 24.434 147.859 24.28 148.167 24.28H150.015C150.338 24.28 150.499 24.434 150.499 24.742V35.038C150.499 35.346 150.338 35.5 150.015 35.5H148.167C147.859 35.5 147.705 35.346 147.705 35.038V34.312H147.617C147.456 34.708 147.17 35.0087 146.759 35.214C146.348 35.4047 145.916 35.5 145.461 35.5ZM159.353 24.28H161.487C161.663 24.28 161.78 24.3313 161.839 24.434C161.897 24.5367 161.875 24.6687 161.773 24.83L158.847 29.648V29.736L161.905 34.95C161.993 35.0967 162 35.2287 161.927 35.346C161.853 35.4487 161.721 35.5 161.531 35.5H159.639C159.389 35.5 159.206 35.4707 159.089 35.412C158.986 35.3533 158.876 35.2287 158.759 35.038L155.965 30.132C155.833 29.8973 155.833 29.6553 155.965 29.406L158.605 24.72C158.766 24.4267 159.015 24.28 159.353 24.28ZM155.261 35.5H153.391C153.083 35.5 152.929 35.346 152.929 35.038V20.496C152.929 20.188 153.083 20.034 153.391 20.034H155.261C155.569 20.034 155.723 20.188 155.723 20.496V35.038C155.723 35.346 155.569 35.5 155.261 35.5ZM167.244 35.5H166.716C165.557 35.5 164.662 35.192 164.032 34.576C163.401 33.96 163.086 33.0727 163.086 31.914V27.866C163.086 26.7073 163.401 25.82 164.032 25.204C164.662 24.588 165.557 24.28 166.716 24.28H171.798C172.12 24.28 172.282 24.434 172.282 24.742V35.038C172.282 35.346 172.12 35.5 171.798 35.5H169.95C169.642 35.5 169.488 35.346 169.488 35.038V34.312H169.4C169.238 34.708 168.952 35.0087 168.542 35.214C168.131 35.4047 167.698 35.5 167.244 35.5ZM169.488 31.408V26.942C169.488 26.7807 169.4 26.7 169.224 26.7H167.156C166.686 26.7 166.356 26.8027 166.166 27.008C165.975 27.1987 165.88 27.5287 165.88 27.998V31.782C165.88 32.2513 165.975 32.5887 166.166 32.794C166.356 32.9847 166.686 33.08 167.156 33.08H167.97C168.982 33.08 169.488 32.5227 169.488 31.408ZM184.124 35.5H182.276C181.954 35.5 181.792 35.346 181.792 35.038V24.016C181.792 23.8547 181.712 23.774 181.55 23.774H179.042C178.734 23.774 178.58 23.62 178.58 23.312V21.816C178.58 21.508 178.734 21.354 179.042 21.354H187.358C187.666 21.354 187.82 21.508 187.82 21.816V23.312C187.82 23.62 187.666 23.774 187.358 23.774H184.85C184.674 23.774 184.586 23.8547 184.586 24.016V35.038C184.586 35.346 184.432 35.5 184.124 35.5ZM193.328 35.5H192.602C191.473 35.5 190.615 35.192 190.028 34.576C189.456 33.96 189.17 33.0727 189.17 31.914V24.742C189.17 24.434 189.324 24.28 189.632 24.28H191.502C191.81 24.28 191.964 24.434 191.964 24.742V31.782C191.964 32.2513 192.06 32.5887 192.25 32.794C192.456 32.9847 192.786 33.08 193.24 33.08H194.054C195.066 33.08 195.572 32.5227 195.572 31.408V24.742C195.572 24.434 195.726 24.28 196.034 24.28H197.882C198.205 24.28 198.366 24.434 198.366 24.742V35.038C198.366 35.346 198.205 35.5 197.882 35.5H196.034C195.726 35.5 195.572 35.346 195.572 35.038V34.312H195.484C195.323 34.708 195.037 35.0087 194.626 35.214C194.216 35.4047 193.783 35.5 193.328 35.5ZM201.038 26.7H200.158C199.982 26.7 199.857 26.6707 199.784 26.612C199.725 26.5533 199.696 26.436 199.696 26.26V24.742C199.696 24.434 199.85 24.28 200.158 24.28H201.038C201.199 24.28 201.28 24.1993 201.28 24.038V21.948C201.28 21.64 201.441 21.486 201.764 21.486H203.612C203.92 21.486 204.074 21.64 204.074 21.948V24.038C204.074 24.1993 204.162 24.28 204.338 24.28H206.054C206.362 24.28 206.516 24.434 206.516 24.742V26.26C206.516 26.4213 206.479 26.5387 206.406 26.612C206.347 26.6707 206.23 26.7 206.054 26.7H204.338C204.162 26.7 204.074 26.7807 204.074 26.942V31.804C204.074 32.2587 204.177 32.5887 204.382 32.794C204.587 32.9847 204.925 33.08 205.394 33.08H206.274C206.582 33.08 206.736 33.234 206.736 33.542V35.06C206.736 35.2213 206.699 35.3387 206.626 35.412C206.567 35.4707 206.45 35.5 206.274 35.5H204.932C203.773 35.5 202.871 35.192 202.226 34.576C201.595 33.96 201.28 33.08 201.28 31.936V26.942C201.28 26.7807 201.199 26.7 201.038 26.7ZM212.6 35.5H211.874C210.744 35.5 209.886 35.192 209.3 34.576C208.728 33.96 208.442 33.0727 208.442 31.914V24.742C208.442 24.434 208.596 24.28 208.904 24.28H210.774C211.082 24.28 211.236 24.434 211.236 24.742V31.782C211.236 32.2513 211.331 32.5887 211.522 32.794C211.727 32.9847 212.057 33.08 212.512 33.08H213.326C214.338 33.08 214.844 32.5227 214.844 31.408V24.742C214.844 24.434 214.998 24.28 215.306 24.28H217.154C217.476 24.28 217.638 24.434 217.638 24.742V35.038C217.638 35.346 217.476 35.5 217.154 35.5H215.306C214.998 35.5 214.844 35.346 214.844 35.038V34.312H214.756C214.594 34.708 214.308 35.0087 213.898 35.214C213.487 35.4047 213.054 35.5 212.6 35.5ZM222.399 38.492H220.529C220.221 38.492 220.067 38.3453 220.067 38.052V24.742C220.067 24.434 220.221 24.28 220.529 24.28H222.399C222.707 24.28 222.861 24.434 222.861 24.742V25.468H222.949C223.111 25.072 223.397 24.7787 223.807 24.588C224.218 24.3827 224.651 24.28 225.105 24.28H226.007C227.137 24.28 227.987 24.588 228.559 25.204C229.146 25.82 229.439 26.7073 229.439 27.866V31.914C229.439 33.0727 229.146 33.96 228.559 34.576C227.987 35.192 227.137 35.5 226.007 35.5H225.105C224.651 35.5 224.218 35.4047 223.807 35.214C223.397 35.0087 223.111 34.708 222.949 34.312H222.861V38.052C222.861 38.3453 222.707 38.492 222.399 38.492ZM224.379 33.08H225.347C225.817 33.08 226.147 32.9847 226.337 32.794C226.543 32.5887 226.645 32.2513 226.645 31.782V27.998C226.645 27.5287 226.543 27.1987 226.337 27.008C226.147 26.8027 225.817 26.7 225.347 26.7H224.379C223.367 26.7 222.861 27.2573 222.861 28.372V31.408C222.861 32.5227 223.367 33.08 224.379 33.08ZM236.349 31.892V31.452C236.349 31.144 236.503 30.99 236.811 30.99H238.681C238.989 30.99 239.143 31.144 239.143 31.452V31.628C239.143 32.1853 239.253 32.5667 239.473 32.772C239.693 32.9773 240.097 33.08 240.683 33.08H241.717C242.289 33.08 242.685 32.97 242.905 32.75C243.14 32.53 243.257 32.1193 243.257 31.518V31.254C243.257 30.8287 243.081 30.506 242.729 30.286C242.392 30.0513 241.967 29.912 241.453 29.868C240.94 29.824 240.383 29.7433 239.781 29.626C239.195 29.494 238.645 29.3327 238.131 29.142C237.618 28.9367 237.185 28.548 236.833 27.976C236.496 27.3893 236.327 26.6413 236.327 25.732V24.962C236.327 23.818 236.65 22.9307 237.295 22.3C237.941 21.6693 238.835 21.354 239.979 21.354H242.179C243.338 21.354 244.24 21.6693 244.885 22.3C245.531 22.9307 245.853 23.818 245.853 24.962V25.38C245.853 25.688 245.699 25.842 245.391 25.842H243.521C243.213 25.842 243.059 25.688 243.059 25.38V25.248C243.059 24.676 242.949 24.2873 242.729 24.082C242.509 23.8767 242.106 23.774 241.519 23.774H240.661C240.06 23.774 239.649 23.8913 239.429 24.126C239.224 24.346 239.121 24.786 239.121 25.446V25.864C239.121 26.5533 239.723 26.9493 240.925 27.052C242.172 27.1547 243.279 27.404 244.247 27.8C244.761 28.02 245.186 28.416 245.523 28.988C245.875 29.5453 246.051 30.264 246.051 31.144V31.892C246.051 33.036 245.729 33.9233 245.083 34.554C244.438 35.1847 243.543 35.5 242.399 35.5H240.001C238.857 35.5 237.963 35.1847 237.317 34.554C236.672 33.9233 236.349 33.036 236.349 31.892ZM256.613 35.5H251.751C250.592 35.5 249.698 35.192 249.067 34.576C248.436 33.96 248.121 33.0727 248.121 31.914V27.866C248.121 26.7073 248.436 25.82 249.067 25.204C249.698 24.588 250.592 24.28 251.751 24.28H253.489C254.648 24.28 255.542 24.588 256.173 25.204C256.804 25.82 257.119 26.7073 257.119 27.866V30.66C257.119 30.968 256.965 31.122 256.657 31.122H251.135C250.959 31.122 250.871 31.2027 250.871 31.364V31.848C250.871 32.3027 250.966 32.6327 251.157 32.838C251.362 33.0287 251.7 33.124 252.169 33.124H256.613C256.921 33.124 257.075 33.2853 257.075 33.608V35.06C257.075 35.2213 257.038 35.3387 256.965 35.412C256.906 35.4707 256.789 35.5 256.613 35.5ZM251.135 29.252H254.127C254.288 29.252 254.369 29.1713 254.369 29.01V27.954C254.369 27.4847 254.274 27.1547 254.083 26.964C253.892 26.7733 253.562 26.678 253.093 26.678H252.169C251.7 26.678 251.37 26.7733 251.179 26.964C250.988 27.1547 250.893 27.4847 250.893 27.954V29.01C250.893 29.1713 250.974 29.252 251.135 29.252ZM265.636 24.28H267.77C267.946 24.28 268.063 24.3313 268.122 24.434C268.181 24.5367 268.159 24.6687 268.056 24.83L265.13 29.648V29.736L268.188 34.95C268.276 35.0967 268.283 35.2287 268.21 35.346C268.137 35.4487 268.005 35.5 267.814 35.5H265.922C265.673 35.5 265.489 35.4707 265.372 35.412C265.269 35.3533 265.159 35.2287 265.042 35.038L262.248 30.132C262.116 29.8973 262.116 29.6553 262.248 29.406L264.888 24.72C265.049 24.4267 265.299 24.28 265.636 24.28ZM261.544 35.5H259.674C259.366 35.5 259.212 35.346 259.212 35.038V20.496C259.212 20.188 259.366 20.034 259.674 20.034H261.544C261.852 20.034 262.006 20.188 262.006 20.496V35.038C262.006 35.346 261.852 35.5 261.544 35.5ZM271.921 35.5H270.051C269.743 35.5 269.589 35.346 269.589 35.038V24.742C269.589 24.434 269.743 24.28 270.051 24.28H271.921C272.229 24.28 272.383 24.434 272.383 24.742V25.49H272.471C272.632 25.094 272.918 24.7933 273.329 24.588C273.74 24.3827 274.172 24.28 274.627 24.28H275.419C275.712 24.28 275.859 24.434 275.859 24.742V26.26C275.859 26.436 275.822 26.5607 275.749 26.634C275.69 26.6927 275.58 26.7147 275.419 26.7H273.901C272.889 26.7 272.383 27.272 272.383 28.416V35.038C272.383 35.346 272.229 35.5 271.921 35.5ZM285.531 35.5H280.669C279.51 35.5 278.615 35.192 277.985 34.576C277.354 33.96 277.039 33.0727 277.039 31.914V27.866C277.039 26.7073 277.354 25.82 277.985 25.204C278.615 24.588 279.51 24.28 280.669 24.28H282.407C283.565 24.28 284.46 24.588 285.091 25.204C285.721 25.82 286.037 26.7073 286.037 27.866V30.66C286.037 30.968 285.883 31.122 285.575 31.122H280.053C279.877 31.122 279.789 31.2027 279.789 31.364V31.848C279.789 32.3027 279.884 32.6327 280.075 32.838C280.28 33.0287 280.617 33.124 281.087 33.124H285.531C285.839 33.124 285.993 33.2853 285.993 33.608V35.06C285.993 35.2213 285.956 35.3387 285.883 35.412C285.824 35.4707 285.707 35.5 285.531 35.5ZM280.053 29.252H283.045C283.206 29.252 283.287 29.1713 283.287 29.01V27.954C283.287 27.4847 283.191 27.1547 283.001 26.964C282.81 26.7733 282.48 26.678 282.011 26.678H281.087C280.617 26.678 280.287 26.7733 280.097 26.964C279.906 27.1547 279.811 27.4847 279.811 27.954V29.01C279.811 29.1713 279.891 29.252 280.053 29.252Z" fill="white"/>
</svg>
